<svg width="12" height="22" viewBox="0 0 12 22" fill="none" xmlns="http://www.w3.org/2000/svg">
<g clip-path="url(#clip0_76_322)">
<path d="M8.06063 12.3877C8.06063 12.8976 8.06063 13.3419 8.06063 13.7863C8.06063 16.2229 8.06172 18.6596 8.05954 21.0963C8.05845 21.9064 7.97357 21.9924 7.16066 21.9956C6.16383 21.9999 5.167 21.9999 4.17018 21.9956C3.4182 21.9924 3.32462 21.9031 3.32462 21.1587C3.32135 18.4713 3.32353 15.784 3.32353 13.0956C3.32353 12.8869 3.32353 12.6771 3.32353 12.4071C2.44423 12.4071 1.63349 12.4092 0.821668 12.406C0.0490195 12.4039 0.00657814 12.3641 0.00440166 11.6239C0.00113695 10.6568 0.00113695 9.68855 0.00440166 8.72141C0.00657814 7.99525 0.0664313 7.93823 0.821668 7.93501C1.63349 7.93178 2.44423 7.93393 3.32353 7.93393C3.32353 7.18087 3.2887 6.48484 3.33332 5.79418C3.38229 5.04757 3.41929 4.28376 3.613 3.56728C4.17888 1.47163 5.93312 0.112903 8.13136 0.0225364C9.21743 -0.0215712 10.3057 0.0139301 11.3928 0.00317211C11.7965 -0.00113107 12.0011 0.161314 11.9979 0.574419C11.9924 1.59535 11.9903 2.61735 11.999 3.63828C12.0022 4.04171 11.8248 4.22674 11.4135 4.23105C10.6343 4.23965 9.85513 4.24826 9.07704 4.29021C8.35881 4.32894 8.08022 4.62479 8.06498 5.34664C8.04757 6.1664 8.06063 6.98616 8.06063 7.86831C9.04113 7.86831 9.9781 7.86831 10.9151 7.86831C11.8368 7.86831 11.8858 7.91779 11.8858 8.85051C11.8858 9.81765 11.8738 10.7859 11.8901 11.753C11.8978 12.2145 11.6986 12.3985 11.2394 12.3931C10.2099 12.3791 9.17934 12.3877 8.06063 12.3877Z" fill="white"/>
</g>
<defs>
<clipPath id="clip0_76_322">
<rect width="12" height="22" fill="white"/>
</clipPath>
</defs>
</svg>
