<svg width="22" height="22" viewBox="0 0 22 22" fill="none" xmlns="http://www.w3.org/2000/svg">
<g clip-path="url(#clip0_76_334)">
<path d="M11.4391 13.0763V10.0705H21.5673C21.6663 10.5939 21.7177 11.2136 21.7177 11.8846C21.7177 14.1396 21.1017 16.9281 19.1143 18.9145C17.182 20.9266 14.7134 22 11.4428 22C5.37993 22 0.282349 17.0619 0.282349 11C0.282349 4.93808 5.37993 0 11.4428 0C14.7968 0 17.1857 1.31633 18.9805 3.03142L16.8593 5.15167C15.5723 3.94442 13.8279 3.00575 11.4391 3.00575C7.01252 3.00575 3.55027 6.57342 3.55027 11C3.55027 15.4266 7.01252 18.9943 11.4391 18.9943C14.3101 18.9943 15.9454 17.8411 16.9932 16.7933C17.8429 15.9436 18.4021 14.7299 18.6221 13.0726L11.4391 13.0763Z" fill="#E94235"/>
</g>
<defs>
<clipPath id="clip0_76_334">
<rect width="22" height="22" fill="white"/>
</clipPath>
</defs>
</svg>
